<?xml version="1.0" encoding="UTF-8" standalone="no"?>
<svg
   xmlns:dc="http://purl.org/dc/elements/1.1/"
   xmlns:cc="http://creativecommons.org/ns#"
   xmlns:rdf="http://www.w3.org/1999/02/22-rdf-syntax-ns#"
   xmlns:svg="http://www.w3.org/2000/svg"
   xmlns="http://www.w3.org/2000/svg"
   xmlns:xlink="http://www.w3.org/1999/xlink"
   xmlns:sodipodi="http://sodipodi.sourceforge.net/DTD/sodipodi-0.dtd"
   xmlns:inkscape="http://www.inkscape.org/namespaces/inkscape"
   width="10.39603cm"
   height="3.3481197cm"
   viewBox="0 0 1039.603 334.81197"
   version="1.1"
   id="svg2"
   inkscape:version="0.91 r13725"
   sodipodi:docname="fillrule-nonzero.svg"
   inkscape:export-filename="/Users/rougier/Documents/Research/2017 - Python + OpenGL/images/chapter-10/fillrule-nonzero.png"
   inkscape:export-xdpi="195.46001"
   inkscape:export-ydpi="195.46001">
  <metadata
     id="metadata55">
    <rdf:RDF>
      <cc:Work
         rdf:about="">
        <dc:format>image/svg+xml</dc:format>
        <dc:type
           rdf:resource="http://purl.org/dc/dcmitype/StillImage" />
        <dc:title></dc:title>
      </cc:Work>
    </rdf:RDF>
  </metadata>
  <sodipodi:namedview
     pagecolor="#ffffff"
     bordercolor="#666666"
     borderopacity="1"
     objecttolerance="10"
     gridtolerance="10"
     guidetolerance="10"
     inkscape:pageopacity="0"
     inkscape:pageshadow="2"
     inkscape:window-width="1179"
     inkscape:window-height="850"
     id="namedview53"
     showgrid="false"
     inkscape:zoom="2.4482778"
     inkscape:cx="151.8315"
     inkscape:cy="54.897124"
     inkscape:window-x="0"
     inkscape:window-y="0"
     inkscape:window-maximized="0"
     inkscape:current-layer="svg2"
     fit-margin-top="0.5"
     fit-margin-left="0.5"
     fit-margin-right="0.5"
     fit-margin-bottom="0.5" />
  <desc
     id="desc4">Example fillrule-nonzero - demonstrates fill-rule:nonzero</desc>
  <defs
     id="defs8">
    <path
       id="Triangle"
       d="M 16,0 -8,9 -8,-9 Z"
       inkscape:connector-curvature="0"
       style="fill:#000000;stroke:none" />
  </defs>
  <path
     style="fill:#dcdcdc;fill-opacity:1;fill-rule:nonzero;stroke:#000000;stroke-width:3"
     inkscape:connector-curvature="0"
     id="path13"
     d="m 173.60309,54.880082 73,225.999998 -191.999999,-140 237.999999,0 -192,140 z" />
  <use
     height="100%"
     width="100%"
     y="0"
     x="0"
     style="overflow:visible;fill:#ff0000;fill-rule:nonzero;stroke:#000000;stroke-width:3"
     id="use15"
     overflow="visible"
     transform="matrix(0.30901699,0.95105652,-0.95105652,0.30901699,229.81309,228.88008)"
     xlink:href="#Triangle" />
  <use
     height="100%"
     width="100%"
     y="0"
     x="0"
     style="overflow:visible;fill:#ff0000;fill-rule:nonzero;stroke:#000000;stroke-width:3"
     id="use17"
     overflow="visible"
     transform="matrix(-0.80901699,-0.58778525,0.58778525,-0.80901699,98.763091,173.08008)"
     xlink:href="#Triangle" />
  <use
     height="100%"
     width="100%"
     y="0"
     x="0"
     style="overflow:visible;fill:#ff0000;fill-rule:nonzero;stroke:#000000;stroke-width:3"
     id="use19"
     overflow="visible"
     transform="translate(237.86309,140.88008)"
     xlink:href="#Triangle" />
  <use
     height="100%"
     width="100%"
     y="0"
     x="0"
     style="overflow:visible;fill:#ff0000;fill-rule:nonzero;stroke:#000000;stroke-width:3"
     id="use21"
     overflow="visible"
     transform="matrix(-0.80901699,0.58778525,-0.58778525,-0.80901699,144.76309,248.68008)"
     xlink:href="#Triangle" />
  <use
     height="100%"
     width="100%"
     y="0"
     x="0"
     style="overflow:visible;fill:#ff0000;fill-rule:nonzero;stroke:#000000;stroke-width:3"
     id="use23"
     overflow="visible"
     transform="matrix(0.30901699,-0.95105652,0.95105652,0.30901699,156.81309,106.86008)"
     xlink:href="#Triangle" />
  <path
     style="fill:#dcdcdc;fill-opacity:1;fill-rule:nonzero;stroke:#000000;stroke-width:3"
     inkscape:connector-curvature="0"
     id="path25"
     d="m 523.60309,60.880082 a 107,107 0 0 1 0,213.999998 107,107 0 1 1 0,-213.999998 z m 0,57.999998 a 49,49 0 0 1 0,98 49,49 0 1 1 0,-98 z" />
  <use
     height="100%"
     width="100%"
     y="0"
     x="0"
     style="overflow:visible;fill:#ff0000;fill-rule:nonzero;stroke:#000000;stroke-width:3"
     id="use27"
     overflow="visible"
     transform="matrix(0,1,-1,0,630.60309,167.88008)"
     xlink:href="#Triangle" />
  <use
     height="100%"
     width="100%"
     y="0"
     x="0"
     style="overflow:visible;fill:#ff0000;fill-rule:nonzero;stroke:#000000;stroke-width:3"
     id="use29"
     overflow="visible"
     transform="matrix(-0.8660254,-0.5,0.5,-0.8660254,470.10309,260.5448)"
     xlink:href="#Triangle" />
  <use
     height="100%"
     width="100%"
     y="0"
     x="0"
     style="overflow:visible;fill:#ff0000;fill-rule:nonzero;stroke:#000000;stroke-width:3"
     id="use31"
     overflow="visible"
     transform="matrix(0.8660254,-0.5,0.5,0.8660254,470.10309,75.215364)"
     xlink:href="#Triangle" />
  <use
     height="100%"
     width="100%"
     y="0"
     x="0"
     style="overflow:visible;fill:#ff0000;fill-rule:nonzero;stroke:#000000;stroke-width:3"
     id="use33"
     overflow="visible"
     transform="matrix(-0.8660254,0.5,-0.5,-0.8660254,548.10309,210.31532)"
     xlink:href="#Triangle" />
  <use
     height="100%"
     width="100%"
     y="0"
     x="0"
     style="overflow:visible;fill:#ff0000;fill-rule:nonzero;stroke:#000000;stroke-width:3"
     id="use35"
     overflow="visible"
     transform="matrix(0,-1,1,0,474.60309,167.88008)"
     xlink:href="#Triangle" />
  <use
     height="100%"
     width="100%"
     y="0"
     x="0"
     style="overflow:visible;fill:#ff0000;fill-rule:nonzero;stroke:#000000;stroke-width:3"
     id="use37"
     overflow="visible"
     transform="matrix(0.8660254,0.5,-0.5,0.8660254,548.10309,125.44484)"
     xlink:href="#Triangle" />
  <path
     style="fill:#dcdcdc;fill-opacity:1;fill-rule:nonzero;stroke:#000000;stroke-width:3"
     inkscape:connector-curvature="0"
     id="path39"
     d="m 873.60309,60.880082 a 107,107 0 0 1 0,213.999998 107,107 0 1 1 0,-213.999998 z m 0,57.999998 a 49,49 0 1 0 0,98 49,49 0 0 0 0,-98 z" />
  <use
     height="100%"
     width="100%"
     y="0"
     x="0"
     style="overflow:visible;fill:#ff0000;fill-rule:nonzero;stroke:#000000;stroke-width:3"
     id="use41"
     overflow="visible"
     transform="matrix(0,1,-1,0,980.60309,167.88008)"
     xlink:href="#Triangle" />
  <use
     height="100%"
     width="100%"
     y="0"
     x="0"
     style="overflow:visible;fill:#ff0000;fill-rule:nonzero;stroke:#000000;stroke-width:3"
     id="use43"
     overflow="visible"
     transform="matrix(-0.8660254,-0.5,0.5,-0.8660254,820.10309,260.5448)"
     xlink:href="#Triangle" />
  <use
     height="100%"
     width="100%"
     y="0"
     x="0"
     style="overflow:visible;fill:#ff0000;fill-rule:nonzero;stroke:#000000;stroke-width:3"
     id="use45"
     overflow="visible"
     transform="matrix(0.8660254,-0.5,0.5,0.8660254,820.10309,75.215364)"
     xlink:href="#Triangle" />
  <use
     height="100%"
     width="100%"
     y="0"
     x="0"
     style="overflow:visible;fill:#ff0000;fill-rule:nonzero;stroke:#000000;stroke-width:3"
     id="use47"
     overflow="visible"
     transform="matrix(0.8660254,-0.5,0.5,0.8660254,898.10309,210.31532)"
     xlink:href="#Triangle" />
  <use
     height="100%"
     width="100%"
     y="0"
     x="0"
     style="overflow:visible;fill:#ff0000;fill-rule:nonzero;stroke:#000000;stroke-width:3"
     id="use49"
     overflow="visible"
     transform="matrix(0,1,-1,0,824.60309,167.88008)"
     xlink:href="#Triangle" />
  <use
     height="100%"
     width="100%"
     y="0"
     x="0"
     style="overflow:visible;fill:#ff0000;fill-rule:nonzero;stroke:#000000;stroke-width:3"
     id="use51"
     overflow="visible"
     transform="matrix(-0.8660254,-0.5,0.5,-0.8660254,898.10309,125.44484)"
     xlink:href="#Triangle" />
</svg>
